<svg xmlns="http://www.w3.org/2000/svg" width="73.93" height="73.93" viewBox="0 0 73.93 73.93">
	<g id="beach" transform="translate(-1383.14 -4006.42)">
		<path id="Path_603" data-name="Path 603" d="M1081.2,516.407a36.965,36.965,0,1,1,36.966-36.966,37.007,37.007,0,0,1-36.966,36.966" transform="translate(338.906 3563.943)" fill="#674964" />
		<path id="Path_604" data-name="Path 604" d="M1053.157,456.609a3.533,3.533,0,0,1,2.97-.092.664.664,0,0,0,.437.16h.062a.671.671,0,0,0,.439-.16,3.533,3.533,0,0,1,2.97.092.654.654,0,0,0,.293.068.67.67,0,0,0,.293-1.272,55.455,55.455,0,0,0-8.052,0,.67.67,0,0,0,.588,1.2" transform="translate(352.529 3585.195)" fill="#fff" />
		<path id="Path_605" data-name="Path 605" d="M1052.106,466.659a.67.67,0,1,0,1.34,0v-5.5l-1.34-1.342Z" transform="translate(352.381 3593.624)" fill="#fff" />
		<path id="Path_606" data-name="Path 606" d="M1059.876,460.861a.644.644,0,0,0-.04.231v3.772a.671.671,0,1,0,1.342,0v-3.772a.645.645,0,0,0-.044-.231Z" transform="translate(365.615 3595.416)" fill="#fff" />
		<path id="Path_607" data-name="Path 607" d="M1079.251,463.59a1.238,1.238,0,0,0-.862-.388h-19.932a.675.675,0,0,1-.475-.2l-4.74-4.741a1.83,1.83,0,0,0-1.193-.567.694.694,0,0,0-.526.206.839.839,0,0,0-.03,1.375l5.291,5.294a1.2,1.2,0,0,0,.86.355h19.93a.678.678,0,0,1,.477.2l2.172,2.175a1.2,1.2,0,0,0,.86.358c.428,0,.513-.027.689-.2.686-.686.5-.876.2-1.169Z" transform="translate(350.742 3590.005)" fill="#fff" />
		<path id="Path_608" data-name="Path 608" d="M1056.311,459.22a2.028,2.028,0,0,0,1.635.165,3.518,3.518,0,0,1,1.98.052c3.319-5.234,6.771-8.369,10.259-9.318.1-.03.206-.054.307-.079a14.179,14.179,0,0,0-15.664,6.674s.393.8.521,1.172a2.022,2.022,0,0,0,.963,1.334" transform="translate(357.041 3576.189)" fill="#fff" />
		<path id="Path_609" data-name="Path 609" d="M1057.135,459.149a3.528,3.528,0,0,1,.981,1.643,2.006,2.006,0,0,0,2.6,1.5,3.523,3.523,0,0,1,1.95.041l6.918-11.981a5.827,5.827,0,0,0-3.111.122c-2.156.626-5.5,2.641-9.337,8.675" transform="translate(360.991 3577.16)" fill="#fff" />
		<path id="Path_610" data-name="Path 610" d="M1060.611,464.15a2.009,2.009,0,0,0,2.6,1.5,3.541,3.541,0,0,1,1.915.03c3.306-6.338,3.382-10.246,2.845-12.421a5.842,5.842,0,0,0-1.451-2.758l-6.918,11.984a3.516,3.516,0,0,1,1.009,1.665" transform="translate(365.214 3577.681)" fill="#fff" />
		<path id="Path_611" data-name="Path 611" d="M1064.926,451.235c.03.1.057.2.087.3.922,3.5-.068,8.052-2.943,13.546a3.5,3.5,0,0,1,1.036,1.687,2,2,0,0,0,2.6,1.5c.385-.07,1.274-.13,1.274-.13a14.182,14.182,0,0,0-2.053-16.906" transform="translate(369.439 3578.938)" fill="#fff" />
		<path id="Path_612" data-name="Path 612" d="M1056.54,466.287h1.548l6.062-10.5-1.16-.672Z" transform="translate(359.973 3585.58)" fill="#fff" />
	</g>
</svg>
