<svg xmlns="http://www.w3.org/2000/svg" width="73.93" height="73.93" viewBox="0 0 73.93 73.93">
	<g id="cafe" transform="translate(-279.111 -4109.364)">
		<path id="Path_632" data-name="Path 632" d="M674.1,554.366A36.965,36.965,0,1,1,711.063,517.4,37.006,37.006,0,0,1,674.1,554.366" transform="translate(-358.022 3628.928)" fill="#674964" />
		<path id="Path_633" data-name="Path 633" d="M658.674,522.257s0-10.357-.008-11.387c.008-.941-.022-23.529-.022-23.529h-.518s-4.2,2.373-4.2,19.968c3.227.884,1.871,4.412,1.627,4.863,0,.9.065,10.094.065,10.094h.008l0,.027a1.525,1.525,0,0,0,3.051,0l-.008-.024Z" transform="translate(-329.275 3640.748)" fill="#fff" />
		<path id="Path_634" data-name="Path 634" d="M657.334,487.585h-.919l.274,9.568h-1.1v-9.568h-.8v9.63h-.914v-9.63h-.884v9.63h-1.074l.3-9.635h-.835l-1.012,8.147s-.022.309-.022.426a3.967,3.967,0,0,0,1.492,3.108c3,3.393.952,6.848.952,7.667.005.906.005,14.9.005,14.9l-.005.032a1.553,1.553,0,0,0,3.105,0l-.005-.022.005-.011V506.954c0-.952-1.736-4.927,1.158-7.881l.011-.011a3.976,3.976,0,0,0,1.245-2.631c.008-.073.008-.26.008-.26Z" transform="translate(-335.389 3641.158)" fill="#fff" />
		<path id="Path_635" data-name="Path 635" d="M651.193,487.282h-.087c-3.363.057-5.256,3.273-5.256,6.774,0,3.528,2.121,6.045,3.967,6.6,1.014,1.421.347,4.776-.366,6.715V522.51a1.569,1.569,0,0,0,1.57,1.57h.255a1.569,1.569,0,0,0,1.57-1.57V507.372c-.713-1.939-1.38-5.294-.369-6.715,1.85-.556,3.97-3.073,3.97-6.6,0-3.5-1.893-6.718-5.256-6.774m-1.752,12.011a4.869,4.869,0,0,1-.757-.762,8.419,8.419,0,0,1-.865-1.245c-.133-.247-.26-.5-.377-.781a5.085,5.085,0,0,1-.271-.89,5.925,5.925,0,0,1-.03-1.787,7.623,7.623,0,0,1,.312-1.475,5.379,5.379,0,0,1,.4-1,1.825,1.825,0,0,1,.217-.353s-.022.157-.035.4-.022.607-.033,1.036a18.731,18.731,0,0,0,.079,3,3.614,3.614,0,0,0,.2.751c.079.252.174.5.269.74.187.486.393.936.572,1.321s.334.7.456.919.225.315.233.3a.862.862,0,0,1-.361-.19" transform="translate(-343.098 3640.647)" fill="#fff" />
		<path id="Path_636" data-name="Path 636" d="M658.674,522.257s0-10.357-.008-11.387c.008-.941-.022-23.529-.022-23.529h-.518s-4.2,2.373-4.2,19.968c3.227.884,1.871,4.412,1.627,4.863,0,.9.065,10.094.065,10.094h.008l0,.027a1.525,1.525,0,0,0,3.051,0l-.008-.024Z" transform="translate(-329.275 3640.748)" fill="#fff" />
		<path id="Path_637" data-name="Path 637" d="M657.334,487.585h-.919l.274,9.568h-1.1v-9.568h-.8v9.63h-.914v-9.63h-.884v9.63h-1.074l.3-9.635h-.835l-1.012,8.147s-.022.309-.022.426a3.967,3.967,0,0,0,1.492,3.108c3,3.393.952,6.848.952,7.667.005.906.005,14.9.005,14.9l-.005.032a1.553,1.553,0,0,0,3.105,0l-.005-.022.005-.011V506.954c0-.952-1.736-4.927,1.158-7.881l.011-.011a3.976,3.976,0,0,0,1.245-2.631c.008-.073.008-.26.008-.26Z" transform="translate(-335.389 3641.157)" fill="#fff" />
		<path id="Path_638" data-name="Path 638" d="M651.193,487.282h-.087c-3.363.057-5.256,3.273-5.256,6.774,0,3.528,2.121,6.045,3.967,6.6,1.014,1.421.347,4.776-.366,6.715V522.51a1.569,1.569,0,0,0,1.57,1.57h.255a1.569,1.569,0,0,0,1.57-1.57V507.372c-.713-1.939-1.38-5.294-.369-6.715,1.85-.556,3.97-3.073,3.97-6.6,0-3.5-1.893-6.718-5.256-6.774m-1.752,12.011a4.869,4.869,0,0,1-.757-.762,8.419,8.419,0,0,1-.865-1.245c-.133-.247-.26-.5-.377-.781a5.085,5.085,0,0,1-.271-.89,5.925,5.925,0,0,1-.03-1.787,7.623,7.623,0,0,1,.312-1.475,5.379,5.379,0,0,1,.4-1,1.825,1.825,0,0,1,.217-.353s-.022.157-.035.4-.022.607-.033,1.036a18.731,18.731,0,0,0,.079,3,3.614,3.614,0,0,0,.2.751c.079.252.174.5.269.74.187.486.393.936.572,1.321s.334.7.456.919.225.315.233.3a.862.862,0,0,1-.361-.19" transform="translate(-343.098 3640.646)" fill="#fff" />
	</g>
</svg>
