<svg xmlns="http://www.w3.org/2000/svg" width="62.271" height="62.271" viewBox="0 0 62.271 62.271">
	<g id="club-house" transform="translate(-204.284 -4169.674)">
		<path id="Path_313" data-name="Path 313" d="M146.51,1260.617a31.136,31.136,0,1,1,31.135-31.135,31.171,31.171,0,0,1-31.135,31.135" transform="translate(88.909 2971.328)" fill="#674964" />
		<path id="Path_314" data-name="Path 314" d="M132.48,1217.384c-.3-1.465-.579-2.846-.861-4.224-.329-1.61-.677-3.218-.983-4.835a1.142,1.142,0,0,0-.648-.881c-2.431-1.338-4.847-2.7-7.271-4.05a.977.977,0,0,1-.628-1.047.907.907,0,0,1,1.419-.6c1.143.622,2.274,1.262,3.41,1.9,1.532.855,3.059,1.724,4.6,2.562a1.409,1.409,0,0,1,.762,1.05c.651,3.224,1.323,6.446,1.963,9.673.078.39.235.462.59.459,3.123-.012,6.245-.006,9.368-.006.925,0,1.233.3,1.18,1.213-.2,3.57-.422,7.141-.631,10.711q-.257,4.322-.506,8.644c-.093,1.613-.174,3.227-.288,4.838a2.367,2.367,0,0,1-2.294,2.154q-4.47.026-8.943,0a2.366,2.366,0,0,1-2.285-2.21q-.388-6.5-.768-13.01-.327-5.569-.654-11.135c-.052-.893.253-1.2,1.137-1.2C130.9,1217.381,131.651,1217.384,132.48,1217.384Zm11.042,1.864h-8.772c.017.128.023.221.044.312q1.583,7.759,3.166,15.514a.915.915,0,1,1-1.774.378q-1.09-5.294-2.169-10.586c-.355-1.736-.7-3.471-1.07-5.2-.035-.163-.189-.416-.3-.424-.57-.044-1.148-.02-1.779-.02.035.541.073,1.02.093,1.5.052,1.032.049,1.032,1.05,1.073a.9.9,0,1,1,.012,1.8c-.276.009-.555,0-.861,0,0,.244-.009.416,0,.585.087,1.471.183,2.942.267,4.416q.4,6.807.788,13.621c.047.791.18.919.977.919q4,0,8,0c.8,0,.93-.11.98-.913.174-2.867.334-5.731.506-8.6q.262-4.462.529-8.923c.02-.352,0-.707,0-1.108h-4.12c-.628,0-1.256.006-1.884,0-.657-.006-1.032-.334-1.035-.889s.369-.9,1.015-.91c.189,0,.378,0,.567,0h5.175c.224,0,.456.032.471-.3C143.435,1220.757,143.479,1220.024,143.522,1219.248Z" transform="translate(101.689 2977.532)" fill="#fff" />
		<path id="Path_315" data-name="Path 315" d="M132.749,1216.541a2.887,2.887,0,0,1-2.887,2.9,2.9,2.9,0,1,1,0-5.809A2.887,2.887,0,0,1,132.749,1216.541Zm-2.881,1.07a1.07,1.07,0,1,0-1.1-1.041A1.078,1.078,0,0,0,129.868,1217.61Z" transform="translate(110.962 3000.492)" fill="#fff" />
		<path id="Path_316" data-name="Path 316" d="M129.919,1214.938a2.45,2.45,0,1,1,2.454-2.445A2.454,2.454,0,0,1,129.919,1214.938Z" transform="translate(111.938 2993.632)" fill="#fff" />
		<path id="Path_317" data-name="Path 317" d="M127.024,1212.975a1.464,1.464,0,0,1,1.5,1.471,1.492,1.492,0,0,1-1.468,1.518,1.525,1.525,0,0,1-1.518-1.483A1.5,1.5,0,0,1,127.024,1212.975Z" transform="translate(108.3 2999.232)" fill="#fff" />
	</g>
</svg>
