<svg xmlns="http://www.w3.org/2000/svg" width="73.927" height="73.93" viewBox="0 0 73.927 73.93">
	<g id="commerc-area" transform="translate(-831.127 -4212.305)">
		<path id="Path_640" data-name="Path 640" d="M877.648,592.325a36.965,36.965,0,1,1,36.963-36.966,37.006,37.006,0,0,1-36.963,36.966" transform="translate(-9.557 3693.91)" fill="#674964" />
		<path id="Path_641" data-name="Path 641" d="M884.473,530.327v1.535a10.955,10.955,0,0,1-.418,1.459,4.4,4.4,0,0,1-2.78,2.5.361.361,0,0,0-.29.42q.008,7.277.005,14.558v.317c.7,0,1.364.03,2.029-.008a1.317,1.317,0,0,1,1.453.892v.531a1.532,1.532,0,0,1-.884.887H848.383a1.553,1.553,0,0,1-.887-.887V552a1.327,1.327,0,0,1,1.456-.892c.664.038,1.332.008,2.029.008V536.451c0-.518,0-.513-.48-.694a4.3,4.3,0,0,1-2.506-2.275,12.614,12.614,0,0,1-.5-1.619v-1.535Zm-23.1,20.773H878.7V536.565c0-.64-.005-.621-.588-.857a4.344,4.344,0,0,1-2.427-2.319,13.874,13.874,0,0,1-.453-1.334c-.569,2.457-2.026,4-4.659,3.987-2.587-.019-4.022-1.554-4.589-4.025a4.691,4.691,0,0,1-4.608,4.084Zm-1.163.008V536.469a1.388,1.388,0,0,0-.008-.352.505.505,0,0,0-.179-.247,1.335,1.335,0,0,0-.3-.122,4.5,4.5,0,0,1-2.91-3.569c-.011-.068-.035-.135-.052-.2a.429.429,0,0,0-.1.225,4.454,4.454,0,0,1-.607,1.649,4.567,4.567,0,0,1-2.544,1.985c-.206.068-.244.171-.244.363q.008,7.306.005,14.617c0,.1.011.19.016.29Z" transform="translate(2.104 3714.336)" fill="#fff" />
		<path id="Path_642" data-name="Path 642" d="M884.473,535.654v.06H847.5v-.06a2.31,2.31,0,0,0,.174-.266q.924-1.847,1.844-3.691c.817-1.635,1.646-3.262,2.452-4.9a.449.449,0,0,1,.48-.3q10.723.012,21.44.008c1.9,0,3.8,0,5.7-.005a.372.372,0,0,1,.4.247c.477.993.979,1.972,1.47,2.956.7,1.4,1.4,2.812,2.107,4.217C883.858,534.5,884.169,535.073,884.473,535.654Zm-10.983-2.327c-.041-.092-.1-.258-.179-.412q-.96-1.774-1.931-3.539c-.176-.32-.35-.64-.55-.941a.514.514,0,0,0-.681-.157.539.539,0,0,0-.3.635,2.353,2.353,0,0,0,.2.456q.74,1.359,1.483,2.715c.3.551.6,1.1.919,1.643a.507.507,0,0,0,.637.239A.592.592,0,0,0,873.49,533.327Zm-11.558-4.456a.579.579,0,0,0-1.12-.271q-.964,1.92-1.92,3.845a7.7,7.7,0,0,0-.361.773.562.562,0,0,0,1,.5,2.577,2.577,0,0,0,.176-.3q1.066-2.135,2.124-4.271A1.691,1.691,0,0,0,861.931,528.871Zm-4.618-.038a.575.575,0,0,0-.412-.591.509.509,0,0,0-.632.247c-.293.545-.57,1.1-.846,1.651-.5.99-1,1.98-1.481,2.978a.565.565,0,0,0,.239.808.551.551,0,0,0,.784-.3c.754-1.486,1.5-2.978,2.243-4.472A2.137,2.137,0,0,0,857.313,528.833Zm17.972-.678-.052.054a1.2,1.2,0,0,0-.171.038c-.382.125-.5.477-.287.919.309.635.632,1.264.949,1.9q.643,1.289,1.291,2.582a.545.545,0,0,0,.564.342.507.507,0,0,0,.494-.4.88.88,0,0,0-.06-.507c-.513-1.06-1.044-2.112-1.57-3.165-.233-.464-.456-.936-.718-1.383C875.632,528.375,875.434,528.28,875.285,528.155Zm-8.708,2.948v-1.622c0-.236.011-.472-.011-.708a.588.588,0,0,0-.578-.559.6.6,0,0,0-.586.556,2.329,2.329,0,0,0-.008.236q0,2.091,0,4.187a1.349,1.349,0,0,0,.041.377.567.567,0,0,0,1.093,0,1.357,1.357,0,0,0,.043-.377C866.58,532.5,866.577,531.8,866.577,531.1Z" transform="translate(2.104 3707.768)" fill="#fff" />
		<path id="Path_643" data-name="Path 643" d="M876.057,525.208a3.215,3.215,0,0,1,.637.491,1.052,1.052,0,0,1,.076,1.22,1.1,1.1,0,0,1-1.044.591H850.394a1.135,1.135,0,0,1-1.155-.862,1.161,1.161,0,0,1,.654-1.342c.06-.027.116-.065.173-.1Z" transform="translate(5.029 3705.573)" fill="#fff" />
		<path id="Path_644" data-name="Path 644" d="M861.925,534l-6.487,6.5-.767-.759,6.506-6.506Z" transform="translate(14.388 3719.313)" fill="#fff" />
		<path id="Path_645" data-name="Path 645" d="M854.668,536.534l3.314-3.311c.209.228.437.466.643.721a.248.248,0,0,1-.025.236q-1.493,1.513-3,3a.244.244,0,0,1-.236.014C855.121,536.984,854.893,536.751,854.668,536.534Z" transform="translate(14.383 3719.295)" fill="#fff" />
		<path id="Path_646" data-name="Path 646" d="M856.591,538.487c-.2-.222-.412-.453-.621-.686-.032-.035-.06-.076-.092-.119l3.243-3.238.73.8Z" transform="translate(16.454 3721.383)" fill="#fff" />
		<path id="Path_647" data-name="Path 647" d="M852.042,540.633a1.086,1.086,0,0,1-1.055-.705,1.159,1.159,0,0,1,.306-1.266.633.633,0,0,0,.182-.4q.024-1.074,0-2.153a.623.623,0,0,0-.184-.4,1.15,1.15,0,0,1-.068-1.635,1.14,1.14,0,1,1,1.576,1.643.535.535,0,0,0-.163.344c-.014.746-.014,1.494,0,2.24a.554.554,0,0,0,.163.344,1.154,1.154,0,0,1,.32,1.261A1.089,1.089,0,0,1,852.042,540.633Z" transform="translate(7.951 3720.17)" fill="#fff" />
	</g>
</svg>
