<svg xmlns="http://www.w3.org/2000/svg" width="73.93" height="73.93" viewBox="0 0 73.93 73.93">
	<g id="gym" transform="translate(-1383.14 -4109.364)">
		<path id="Path_613" data-name="Path 613" d="M1081.2,554.366a36.965,36.965,0,1,1,36.966-36.966,37.006,37.006,0,0,1-36.966,36.966" transform="translate(338.906 3628.928)" fill="#674964" />
		<path id="Path_614" data-name="Path 614" d="M1053.586,499.679q0-3.193,0-6.387c.006-1.641.786-2.492,2.286-2.49,1.424,0,2.235.876,2.238,2.438q0,6.435,0,12.871a2.121,2.121,0,0,1-2.286,2.392c-1.424,0-2.232-.879-2.234-2.438-.008-2.129,0-4.258,0-6.387" transform="translate(354.913 3646.674)" fill="#fff" />
		<path id="Path_615" data-name="Path 615" d="M1065,499.686c0,2.129.006,4.258,0,6.387,0,1.562-.811,2.432-2.243,2.432a2.122,2.122,0,0,1-2.278-2.4q-.008-6.435,0-12.871A2.266,2.266,0,1,1,1065,493.2c.008,2.161,0,4.323,0,6.484" transform="translate(366.709 3646.672)" fill="#fff" />
		<rect id="Rectangle_131" data-name="Rectangle 131" width="12.429" height="4.241" transform="translate(1413.889 4144.23)" fill="#fff" />
		<path id="Path_616" data-name="Path 616" d="M1053.407,494.332c.328-1.66.933-2.281,2.205-2.278v10.859c-1.194.13-1.844-.515-2.224-2.189-1.234-.152-1.47-.418-1.47-1.665q0-1.615,0-3.235c.005-1.085.309-1.4,1.489-1.491" transform="translate(352.058 3648.816)" fill="#fff" />
		<path id="Path_617" data-name="Path 617" d="M1064.659,500.722c-.364,1.616-.925,2.2-2.2,2.254V492.055c1.253-.005,1.858.618,2.172,2.213,1.274.2,1.5.466,1.5,1.752v3.04c0,1.245-.239,1.511-1.475,1.662" transform="translate(370.103 3648.818)" fill="#fff" />
	</g>
</svg>
