<svg xmlns="http://www.w3.org/2000/svg" width="62.271" height="62.271" viewBox="0 0 62.271 62.271">
	<g id="hotel" transform="translate(-1482.349 -4082.963)">
		<path id="Path_1041" data-name="Path 1041" d="M586.1,1230.793a31.135,31.135,0,1,1,31.135-31.135,31.169,31.169,0,0,1-31.135,31.135" transform="translate(927.385 2914.441)" fill="#674964" />
		<path id="Path_320" data-name="Path 320" d="M563.7,1175.968v1.59a1.938,1.938,0,1,0,3.875,0v-1.59a1.938,1.938,0,0,0-3.875,0Zm2.838,0v1.59a.9.9,0,1,1-1.8,0v-1.59a.9.9,0,0,1,1.8,0Z" transform="translate(944.044 2924.95)" fill="#fff" />
		<path id="Path_321" data-name="Path 321" d="M569.909,1175.07a.519.519,0,1,0,0-1.038h-2.838a.519.519,0,0,0-.518.517v4.428a.519.519,0,0,0,.518.52h2.838a.519.519,0,1,0,0-1.038h-2.317v-1.177h1.555a.519.519,0,1,0,0-1.038h-1.555v-1.175Z" transform="translate(949.491 2924.95)" fill="#fff" />
		<path id="Path_322" data-name="Path 322" d="M565.6,1179.5a.519.519,0,0,0,.517-.52v-4.428a.519.519,0,0,0-1.038,0v1.7h-1.8v-1.7a.519.519,0,0,0-1.038,0v4.428a.519.519,0,1,0,1.038,0v-1.695h1.8v1.695A.52.52,0,0,0,565.6,1179.5Z" transform="translate(941.276 2924.95)" fill="#fff" />
		<path id="Path_323" data-name="Path 323" d="M567.041,1179.5a.519.519,0,0,0,.518-.52v-3.907h.9a.519.519,0,1,0,0-1.038h-2.835a.519.519,0,1,0,0,1.038h.9v3.907A.52.52,0,0,0,567.041,1179.5Z" transform="translate(946.722 2924.95)" fill="#fff" />
		<path id="Path_324" data-name="Path 324" d="M568.5,1174.032a.519.519,0,0,0-.517.517v4.428a.519.519,0,0,0,.517.52h2.146a.519.519,0,0,0,0-1.038H569.02v-3.911A.52.52,0,0,0,568.5,1174.032Z" transform="translate(952.215 2924.95)" fill="#fff" />
		<path id="Path_325" data-name="Path 325" d="M591.852,1186.553H588.7v-3.564a.518.518,0,0,0-.52-.518h-.172v-3.218a.519.519,0,0,0-1.038,0v3.218H565.455v-8.234h21.518v2.593a.519.519,0,1,0,1.038,0v-3.114a.519.519,0,0,0-.521-.518H564.938a.519.519,0,0,0-.52.518v8.754h-.172a.518.518,0,0,0-.52.518v3.564h-3.079a.518.518,0,0,0-.518.517v20.686a.519.519,0,0,0,.518.521h5.4a.519.519,0,1,0,0-1.038h-1.279v-23.73h22.9v23.73h-7.472v-9.167a.52.52,0,0,0-.521-.521h-6.917a.52.52,0,0,0-.52.521v9.167h-3.771a.519.519,0,0,0,0,1.038h23.387a.519.519,0,0,0,.518-.521V1187.07A.517.517,0,0,0,591.852,1186.553Zm-30.685,4.7h2.558v1.73h-2.558Zm2.558,2.768v1.314h-2.558v-1.314Zm0,4.082h-2.558v-1.73h2.558Zm-2.558,1.038h2.558v1.314h-2.558Zm0,2.352h2.558v1.73h-2.558Zm2.558-13.906v2.628h-2.558v-2.628Zm-2.558,16.674h2.558v2.974h-2.558Zm30.164-1.038H588.7v-1.73h2.628Zm0-5.12H588.7v-1.73h2.628Zm-2.628-2.768v-1.314h2.628v1.314Zm2.628-2.352H588.7v-1.73h2.628Zm-2.628,7.472v-1.314h2.628v1.314Zm2.628-12.868v2.628H588.7v-2.628Zm-18.058,19.648v-8.649h5.882v8.649Zm15.429,0v-2.974h2.628v2.974Z" transform="translate(937.236 2923.361)" fill="#fff" />
		<path id="Path_326" data-name="Path 326" d="M562.671,1181.1h2.768a.519.519,0,0,0,.518-.52v-2.768a.519.519,0,0,0-.518-.517h-2.768a.519.519,0,0,0-.52.517v2.768A.52.52,0,0,0,562.671,1181.1Zm.517-2.768h1.73v1.73h-1.73Z" transform="translate(941.093 2931.169)" fill="#fff" />
		<path id="Path_327" data-name="Path 327" d="M564.576,1181.1h2.768a.519.519,0,0,0,.518-.52v-2.768a.519.519,0,0,0-.518-.517h-2.768a.519.519,0,0,0-.521.517v2.768A.52.52,0,0,0,564.576,1181.1Zm.517-2.768h1.73v1.73h-1.73Z" transform="translate(944.725 2931.169)" fill="#fff" />
		<path id="Path_328" data-name="Path 328" d="M566.477,1181.1h2.768a.52.52,0,0,0,.52-.52v-2.768a.519.519,0,0,0-.52-.517h-2.768a.519.519,0,0,0-.518.517v2.768A.519.519,0,0,0,566.477,1181.1Zm.52-2.768h1.73v1.73H567Z" transform="translate(948.356 2931.169)" fill="#fff" />
		<path id="Path_329" data-name="Path 329" d="M568.381,1181.1h2.768a.52.52,0,0,0,.521-.52v-2.768a.519.519,0,0,0-.521-.517h-2.768a.519.519,0,0,0-.518.517v2.768A.519.519,0,0,0,568.381,1181.1Zm.52-2.768h1.73v1.73H568.9Z" transform="translate(951.988 2931.169)" fill="#fff" />
		<path id="Path_330" data-name="Path 330" d="M562.151,1182.338a.52.52,0,0,0,.52.521h2.768a.52.52,0,0,0,.518-.521v-2.768a.519.519,0,0,0-.518-.518h-2.768a.519.519,0,0,0-.52.518Zm1.038-2.247h1.73v1.73h-1.73Z" transform="translate(941.093 2934.527)" fill="#fff" />
		<path id="Path_331" data-name="Path 331" d="M564.055,1182.338a.52.52,0,0,0,.521.521h2.768a.52.52,0,0,0,.518-.521v-2.768a.519.519,0,0,0-.518-.518h-2.768a.519.519,0,0,0-.521.518Zm1.038-2.247h1.73v1.73h-1.73Z" transform="translate(944.725 2934.527)" fill="#fff" />
		<path id="Path_332" data-name="Path 332" d="M565.959,1182.338a.52.52,0,0,0,.518.521h2.768a.52.52,0,0,0,.52-.521v-2.768a.519.519,0,0,0-.52-.518h-2.768a.519.519,0,0,0-.518.518Zm1.038-2.247h1.73v1.73H567Z" transform="translate(948.356 2934.527)" fill="#fff" />
		<path id="Path_333" data-name="Path 333" d="M567.863,1182.338a.52.52,0,0,0,.518.521h2.768a.52.52,0,0,0,.521-.521v-2.768a.519.519,0,0,0-.521-.518h-2.768a.519.519,0,0,0-.518.518Zm1.038-2.247h1.73v1.73H568.9Z" transform="translate(951.988 2934.527)" fill="#fff" />
		<path id="Path_334" data-name="Path 334" d="M562.151,1184.1a.52.52,0,0,0,.52.521h2.768a.519.519,0,0,0,.518-.521v-2.768a.519.519,0,0,0-.518-.517h-2.768a.519.519,0,0,0-.52.517Zm1.038-2.247h1.73v1.73h-1.73Z" transform="translate(941.093 2937.887)" fill="#fff" />
		<path id="Path_335" data-name="Path 335" d="M567.863,1184.1a.52.52,0,0,0,.518.521h2.768a.52.52,0,0,0,.521-.521v-2.768a.519.519,0,0,0-.521-.517h-2.768a.519.519,0,0,0-.518.517Zm1.038-2.247h1.73v1.73H568.9Z" transform="translate(951.988 2937.887)" fill="#fff" />
		<path id="Path_336" data-name="Path 336" d="M562.151,1185.86a.52.52,0,0,0,.52.521h2.768a.52.52,0,0,0,.518-.521v-2.767a.519.519,0,0,0-.518-.518h-2.768a.519.519,0,0,0-.52.518Zm1.038-2.247h1.73v1.73h-1.73Z" transform="translate(941.093 2941.245)" fill="#fff" />
		<path id="Path_337" data-name="Path 337" d="M567.863,1185.86a.52.52,0,0,0,.518.521h2.768a.52.52,0,0,0,.521-.521v-2.767a.519.519,0,0,0-.521-.518h-2.768a.519.519,0,0,0-.518.518Zm1.038-2.247h1.73v1.73H568.9Z" transform="translate(951.988 2941.245)" fill="#fff" />
	</g>
</svg>
