<svg xmlns="http://www.w3.org/2000/svg" width="73.93" height="73.93" viewBox="0 0 73.93 73.93">
	<g id="kids" transform="translate(-279.111 -4006.42)">
		<path id="Path_618" data-name="Path 618" d="M674.1,516.407a36.965,36.965,0,1,1,36.966-36.966A37.007,37.007,0,0,1,674.1,516.407" transform="translate(-358.022 3563.943)" fill="#674964" />
		<path id="Path_619" data-name="Path 619" d="M643.784,455.234c2.1-1.408,3.189-1.34,4.616.141,3.571,3.7,8.326,3.336,11.732-.567a3.307,3.307,0,0,1,4.672-.494c5.185,4.89,8.556,4.8,13.3-.466.412.087.917.155,1.4.3s.952.39,2.132.887c-2,2-3.729,3.729-5.8,5.8.55,1.936,1.231,4.334,1.953,6.883-.982.117-1.887.22-2.994.35v7.355h-3.073v-7.433l-1.006-.076c-.111,1.2-.268,2.4-.32,3.6-.057,1.288-.014,2.582-.014,3.981h-2.644v-7.406c-1.161-.133-2.091-.236-3.254-.369.757-2.484,1.486-4.871,2.229-7.314-1.408-1.117-2.742-2.18-4.041-3.216-.228.144-.353.222-.483.3-4.513,2.59-3.667,6.783-2.9,10.859.431,2.308,1.174,4.556,1.841,7.073h-4.377c-.681-2.419-1.394-4.96-2.264-8.057-2.365,2.533-1.969,5.722-3.368,8.2h-4.006c.428-1.9.976-3.694,1.218-5.538.382-2.948.629-5.926.773-8.9.022-.548-.667-1.2-1.136-1.69-1.307-1.375-2.671-2.69-4.185-4.2" transform="translate(-346.636 3582.916)" fill="#fff" />
		<path id="Path_620" data-name="Path 620" d="M661.919,456.355a4.841,4.841,0,0,1-4.873,5.09,4.78,4.78,0,0,1-5.012-4.917,4.956,4.956,0,1,1,9.885-.174" transform="translate(-332.515 3578.744)" fill="#fff" />
		<path id="Path_621" data-name="Path 621" d="M655.64,456.22c.032,3.064-1.839,5.1-4.74,5.158a4.886,4.886,0,0,1-5.107-5.093,5.208,5.208,0,0,1,4.933-5.155,4.964,4.964,0,0,1,4.914,5.09" transform="translate(-343.197 3578.756)" fill="#fff" />
		<path id="Path_622" data-name="Path 622" d="M656.32,452.965l-1.959-.7,1.137-1.716,1.057,1.957,1.651.444L657.19,454.9Z" transform="translate(-328.528 3577.756)" fill="#fff" />
		<path id="Path_623" data-name="Path 623" d="M656.32,452.965l-1.959-.7,1.137-1.716,1.057,1.957,1.651.444L657.19,454.9Z" transform="translate(-328.528 3577.756)" fill="#fff" />
	</g>
</svg>
