<svg xmlns="http://www.w3.org/2000/svg" width="73.927" height="73.93" viewBox="0 0 73.927 73.93">
	<g id="pool" transform="translate(-831.127 -4109.364)">
		<path id="Path_598" data-name="Path 598" d="M877.648,554.366A36.965,36.965,0,1,1,914.611,517.4a37.006,37.006,0,0,1-36.963,36.966" transform="translate(-9.557 3628.928)" fill="#674964" />
		<path id="Path_600" data-name="Path 600" d="M881.072,498.26a2.1,2.1,0,0,1-3.162,0,6.823,6.823,0,0,0-10.256-.041,2.082,2.082,0,0,1-1.568.705,2.115,2.115,0,0,1-1.573-.705,6.82,6.82,0,0,0-10.219,0,2.106,2.106,0,0,1-3.138.008,6.76,6.76,0,0,0-3.862-2.175V500.2a2.722,2.722,0,0,1,.884.67,6.087,6.087,0,0,0,9.091-.008,2.855,2.855,0,0,1,4.271,0,6.066,6.066,0,0,0,9.093,0,2.846,2.846,0,0,1,4.279.019,6.073,6.073,0,0,0,9.161,0,2.881,2.881,0,0,1,1.291-.843v-4.025a6.805,6.805,0,0,0-4.293,2.248" transform="translate(1.761 3655.43)" fill="#fff" />
		<path id="Path_601" data-name="Path 601" d="M866.2,496.634a4.909,4.909,0,1,1-4.906-4.9,4.905,4.905,0,0,1,4.906,4.9" transform="translate(17.322 3648.264)" fill="#fff" />
		<path id="Path_602" data-name="Path 602" d="M861.134,508.128a.8.8,0,0,0,1.147,0,8.2,8.2,0,0,1,4.792-2.636,4.577,4.577,0,0,0-.185-2.3c-.141-.4-1.7-5.643-1.7-5.643a3.059,3.059,0,0,1,.472-2.066c.659-.96,2.037-1.622,3.978-1.912a1.988,1.988,0,1,0-.591-3.932c-3.1.461-5.353,1.676-6.669,3.6a6.964,6.964,0,0,0-1.066,5.223l.426,1.711a3.924,3.924,0,0,0-.767.19l-8.033,2.828a4.658,4.658,0,0,0-3.084,4.052,8.117,8.117,0,0,1,11.282.881" transform="translate(6.138 3644.645)" fill="#fff" />
	</g>
</svg>
