<svg xmlns="http://www.w3.org/2000/svg" width="73.93" height="73.93" viewBox="0 0 73.93 73.93">
	<g id="security" transform="translate(-279.111 -3903.479)">
		<path id="Path_624" data-name="Path 624" d="M674.1,478.448a36.965,36.965,0,1,1,36.966-36.966A37.006,37.006,0,0,1,674.1,478.448" transform="translate(-358.022 3498.961)" fill="#674964" />
		<path id="Path_625" data-name="Path 625" d="M646.565,422.038c1.841,5.169,11.39,4.529,11.39,4.529s9.546.64,11.39-4.529a28.918,28.918,0,0,0-22.78,0Zm0,0" transform="translate(-341.875 3524.951)" fill="#fff" />
		<path id="Path_626" data-name="Path 626" d="M672.055,418.739c-2.08-.214-5.462-.353-8.141-2.715s-3.241-1.939-3.241-1.939-.567-.423-3.246,1.939-6.067,2.5-8.149,2.715-1.939,1.058-2.462,3.42-2.294,3-1.728,3.561c.4.391,2.207,1.885,3.284,2.763,2.761-1.668,7.2-2.78,12.3-2.78s9.538,1.112,12.3,2.78c1.074-.879,2.885-2.373,3.279-2.763.567-.564-1.207-1.2-1.733-3.561s-.382-3.208-2.463-3.42Zm-8.792,5.676-2.59-1.871-2.59,1.885.99-3.078-2.587-1.917h3.2l.99-3.043.987,3.043h3.2l-2.59,1.92Zm0,0" transform="translate(-344.593 3515.289)" fill="#fff" />
		<path id="Path_627" data-name="Path 627" d="M669.513,421.136c-2.614-1.445-6.834-2.4-11.493-2.4s-8.879.955-11.493,2.4v1.5a29.485,29.485,0,0,1,22.986,0Zm0,0" transform="translate(-341.94 3523.301)" fill="#fff" />
		<path id="Path_628" data-name="Path 628" d="M657.593,435.795a10.818,10.818,0,1,1,10.815-10.815A10.828,10.828,0,0,1,657.593,435.795Z" transform="translate(-341.516 3515.465)" fill="#9d864f" />
		<path id="Path_629" data-name="Path 629" d="M646.565,422.038c1.841,5.169,11.39,4.529,11.39,4.529s9.546.64,11.39-4.529a28.918,28.918,0,0,0-22.78,0Zm0,0" transform="translate(-341.875 3524.951)" fill="#fff" />
		<path id="Path_630" data-name="Path 630" d="M672.055,418.739c-2.08-.214-5.462-.353-8.141-2.715s-3.241-1.939-3.241-1.939-.567-.423-3.246,1.939-6.067,2.5-8.149,2.715-1.939,1.058-2.462,3.42-2.294,3-1.728,3.561c.4.391,2.207,1.885,3.284,2.763,2.761-1.668,7.2-2.78,12.3-2.78s9.538,1.112,12.3,2.78c1.074-.879,2.885-2.373,3.279-2.763.567-.564-1.207-1.2-1.733-3.561s-.382-3.208-2.463-3.42Zm-8.792,5.676-2.59-1.871-2.59,1.885.99-3.078-2.587-1.917h3.2l.99-3.043.987,3.043h3.2l-2.59,1.92Zm0,0" transform="translate(-344.593 3515.289)" fill="#fff" />
		<path id="Path_631" data-name="Path 631" d="M669.513,421.136c-2.614-1.445-6.834-2.4-11.493-2.4s-8.879.955-11.493,2.4v1.5a29.485,29.485,0,0,1,22.986,0Zm0,0" transform="translate(-341.94 3523.301)" fill="#fff" />
	</g>
</svg>
