<svg xmlns="http://www.w3.org/2000/svg" width="73.927" height="73.93" viewBox="0 0 73.927 73.93">
	<g id="sport" transform="translate(-831.127 -4006.42)">
		<rect id="Rectangle_133" data-name="Rectangle 133" width="43" height="44" transform="translate(846 4020)" fill="#fff" />
		<path id="Path_597" data-name="Path 597" d="M877.648,516.407a36.965,36.965,0,1,1,36.963-36.966,37.006,37.006,0,0,1-36.963,36.966m4.4-49.959.347,3.393h-9.741l.347-3.393h-3.327l-1.654,10.216h5.692c.342-1.269,1.944-2.2,3.935-2.2s3.588.936,3.927,2.2h5.44L885.2,466.448Zm-4.4,13.432c-1.985,0-3.591-.936-3.93-2.208h-5.86l-2.332,14.381h5.329l.5-4.919h12.58l.5,4.919h5.318L887.2,477.672H881.58c-.342,1.272-1.945,2.208-3.932,2.208M881.04,466.5h-7.024l-.241,2.335h7.5Zm-8.771,21.649-.4,3.908h11.558l-.4-3.908Zm5.378-9.275a3.34,3.34,0,0,0,2.85-1.2h-5.7a3.34,3.34,0,0,0,2.85,1.2m0-3.4a3.346,3.346,0,0,0-2.85,1.2h5.7a3.346,3.346,0,0,0-2.85-1.2m-9.994-11.038-5.136,30.024h30.26l-5.641-30.024Zm16.89,28.633h-20.2l4.483-27.621h17.221l4.919,27.621Z" transform="translate(-9.557 3563.943)" fill="#674964" />
	</g>
</svg>
