<svg xmlns="http://www.w3.org/2000/svg" width="73.93" height="73.93" viewBox="0 0 73.93 73.93">
	<g id="super-market" transform="translate(-1383.14 -4212.305)">
		<path id="Path_648" data-name="Path 648" d="M1081.2,592.325a36.965,36.965,0,1,1,36.966-36.966,37.006,37.006,0,0,1-36.966,36.966" transform="translate(338.906 3693.91)" fill="#674964" />
		<path id="Path_650" data-name="Path 650" d="M1092.338,531.478a4.12,4.12,0,0,0-3.192-1.481h-26.661a4.035,4.035,0,0,0-2.116.6l-1.364-4.762a1.814,1.814,0,0,0-1.741-1.318h-6.026a1.374,1.374,0,0,0-1.373,1.372v.144a1.374,1.374,0,0,0,1.373,1.372h5.185l2.644,9.351,3.642,12.906a4.761,4.761,0,0,0,.84,9.37,4.657,4.657,0,1,0,9.05,1.543,4.57,4.57,0,0,0-.26-1.532h5.451a4.733,4.733,0,0,0-.233,2.069,4.661,4.661,0,1,0,4.556-5.2H1063.9a1.664,1.664,0,0,1-1.676-1.567,1.63,1.63,0,0,1,1.633-1.695h21.728a4.039,4.039,0,0,0,3.91-3.059l3.624-14.579A4.021,4.021,0,0,0,1092.338,531.478ZM1082.2,559.034a1.534,1.534,0,1,1-1.532,1.535A1.538,1.538,0,0,1,1082.2,559.034Zm-14.248,0a1.534,1.534,0,1,1-1.535,1.535A1.538,1.538,0,0,1,1067.948,559.034Zm-5.633-22.292-.7-2.468a.866.866,0,0,1,.152-.789.893.893,0,0,1,.719-.358h2.923l.8,3.623h-3.891v-.008Zm.878,3.122h3.7l.735,3.352h-3.49Zm3.4,9.649a.9.9,0,0,1-.868-.664l-.71-2.511h3.292l.7,3.165h-2.413v.011Zm7.81,0h-2.2l-.7-3.167h2.9v3.167Zm0-6.3h-3.585l-.735-3.352h4.32Zm0-6.474h-5l-.8-3.623h5.8Zm5.6,12.77h-2.465v-3.167h3.13Zm1.326-6.3h-3.792v-3.352h4.5Zm-3.792-6.474v-3.623h5.917l-.762,3.623Zm8.939,12.087a.9.9,0,0,1-.879.691h-2.4l.672-3.165h3.228Zm1.391-5.614h-3.347l.71-3.352h3.469Zm2.224-8.977-.619,2.495h-3.588l.762-3.623h2.566a.856.856,0,0,1,.708.35A.867.867,0,0,1,1090.088,534.239Z" transform="translate(348.549 3704.395)" fill="#fff" />
	</g>
</svg>
